<svg width="16" height="17" viewBox="0 0 16 17" fill="none" xmlns="http://www.w3.org/2000/svg">
<path fill-rule="evenodd" clip-rule="evenodd" d="M1 8.16616C1 8.03355 1.05268 7.90637 1.14645 7.81261C1.24021 7.71884 1.36739 7.66616 1.5 7.66616H13.293L10.146 4.52016C10.0521 4.42627 9.99937 4.29893 9.99937 4.16616C9.99937 4.03338 10.0521 3.90605 10.146 3.81216C10.2399 3.71827 10.3672 3.66553 10.5 3.66553C10.6328 3.66553 10.7601 3.71827 10.854 3.81216L14.854 7.81216C14.9006 7.8586 14.9375 7.91378 14.9627 7.97453C14.9879 8.03527 15.0009 8.10039 15.0009 8.16616C15.0009 8.23193 14.9879 8.29705 14.9627 8.35779C14.9375 8.41854 14.9006 8.47371 14.854 8.52016L10.854 12.5202C10.7601 12.614 10.6328 12.6668 10.5 12.6668C10.3672 12.6668 10.2399 12.614 10.146 12.5202C10.0521 12.4263 9.99937 12.2989 9.99937 12.1662C9.99937 12.0334 10.0521 11.906 10.146 11.8122L13.293 8.66616H1.5C1.36739 8.66616 1.24021 8.61348 1.14645 8.51971C1.05268 8.42594 1 8.29877 1 8.16616V8.16616Z" fill="black"/>
</svg>
