<svg width="48" height="48" viewBox="0 0 48 48" fill="none" xmlns="http://www.w3.org/2000/svg">
<path d="M26.1075 13.575C25.488 11.475 22.512 11.475 21.8925 13.575L21.7425 14.085C21.6499 14.3994 21.4882 14.6891 21.2691 14.9328C21.05 15.1766 20.7791 15.3682 20.4763 15.4936C20.1736 15.619 19.8465 15.6751 19.5193 15.6577C19.192 15.6403 18.8728 15.5498 18.585 15.393L18.12 15.138C16.1955 14.091 14.091 16.1955 15.1395 18.1185L15.393 18.585C16.062 19.815 15.4275 21.3465 14.085 21.7425L13.575 21.8925C11.475 22.512 11.475 25.488 13.575 26.1075L14.085 26.2575C14.3994 26.3501 14.6891 26.5118 14.9328 26.7309C15.1766 26.95 15.3682 27.2209 15.4936 27.5237C15.619 27.8264 15.6751 28.1535 15.6577 28.4807C15.6403 28.808 15.5498 29.1272 15.393 29.415L15.138 29.88C14.091 31.8045 16.1955 33.909 18.1185 32.8605L18.585 32.607C18.8728 32.4502 19.192 32.3597 19.5193 32.3423C19.8465 32.3249 20.1736 32.381 20.4763 32.5064C20.7791 32.6318 21.05 32.8234 21.2691 33.0672C21.4882 33.3109 21.6499 33.6006 21.7425 33.915L21.8925 34.425C22.512 36.525 25.488 36.525 26.1075 34.425L26.2575 33.915C26.3501 33.6006 26.5118 33.3109 26.7309 33.0672C26.95 32.8234 27.2209 32.6318 27.5237 32.5064C27.8264 32.381 28.1535 32.3249 28.4807 32.3423C28.808 32.3597 29.1272 32.4502 29.415 32.607L29.88 32.862C31.8045 33.909 33.909 31.8045 32.8605 29.8815L32.607 29.415C32.4502 29.1272 32.3597 28.808 32.3423 28.4807C32.3249 28.1535 32.381 27.8264 32.5064 27.5237C32.6318 27.2209 32.8234 26.95 33.0672 26.7309C33.3109 26.5118 33.6006 26.3501 33.915 26.2575L34.425 26.1075C36.525 25.488 36.525 22.512 34.425 21.8925L33.915 21.7425C33.6006 21.6499 33.3109 21.4882 33.0672 21.2691C32.8234 21.05 32.6318 20.7791 32.5064 20.4763C32.381 20.1736 32.3249 19.8465 32.3423 19.5193C32.3597 19.192 32.4502 18.8728 32.607 18.585L32.862 18.12C33.909 16.1955 31.8045 14.091 29.8815 15.1395L29.415 15.393C29.1272 15.5498 28.808 15.6403 28.4807 15.6577C28.1535 15.6751 27.8264 15.619 27.5237 15.4936C27.2209 15.3682 26.95 15.1766 26.7309 14.9328C26.5118 14.6891 26.3501 14.3994 26.2575 14.085L26.1075 13.575ZM24 28.395C22.8344 28.395 21.7165 27.932 20.8923 27.1077C20.068 26.2835 19.605 25.1656 19.605 24C19.605 22.8344 20.068 21.7165 20.8923 20.8923C21.7165 20.068 22.8344 19.605 24 19.605C25.1652 19.605 26.2827 20.0679 27.1067 20.8918C27.9306 21.7158 28.3935 22.8333 28.3935 23.9985C28.3935 25.1637 27.9306 26.2812 27.1067 27.1052C26.2827 27.9291 25.1652 28.392 24 28.392V28.395Z" fill="black"/>
</svg>
