<svg xmlns="http://www.w3.org/2000/svg" width="18" height="18" viewBox="0 0 18 18" fill="none">
<path d="M13.2098 11.6369C14.2991 10.1504 14.787 8.30742 14.5758 6.47666C14.3647 4.6459 13.4701 2.96237 12.071 1.76289C10.6719 0.563405 8.87147 -0.0635771 7.02994 0.00738022C5.18842 0.0783375 3.44159 0.842001 2.13893 2.14559C0.836273 3.44918 0.0738598 5.19655 0.00422027 7.03813C-0.0654193 8.87971 0.562851 10.6797 1.76334 12.0779C2.96382 13.4762 4.64799 14.3696 6.4789 14.5794C8.30981 14.7892 10.1524 14.3 11.6381 13.2096H11.637C11.6708 13.2546 11.7068 13.2974 11.7473 13.339L16.0785 17.6702C16.2894 17.8813 16.5756 18 16.874 18.0001C17.1725 18.0002 17.4587 17.8818 17.6698 17.6708C17.8809 17.4599 17.9996 17.1737 17.9997 16.8753C17.9998 16.5768 17.8813 16.2906 17.6704 16.0795L13.3391 11.7482C13.2989 11.7075 13.2557 11.6699 13.2098 11.6357V11.6369ZM13.5 7.31237C13.5 8.12492 13.34 8.92952 13.029 9.68022C12.7181 10.4309 12.2623 11.113 11.6877 11.6876C11.1132 12.2622 10.4311 12.7179 9.68036 13.0289C8.92965 13.3398 8.12506 13.4999 7.3125 13.4999C6.49995 13.4999 5.69535 13.3398 4.94465 13.0289C4.19395 12.7179 3.51184 12.2622 2.93728 11.6876C2.36272 11.113 1.90695 10.4309 1.596 9.68022C1.28505 8.92952 1.125 8.12492 1.125 7.31237C1.125 5.67134 1.7769 4.09753 2.93728 2.93715C4.09766 1.77676 5.67148 1.12487 7.3125 1.12487C8.95353 1.12487 10.5273 1.77676 11.6877 2.93715C12.8481 4.09753 13.5 5.67134 13.5 7.31237V7.31237Z" fill="currentColor"/>
</svg>