<svg width="24" height="24" viewBox="0 0 24 24" fill="none" xmlns="http://www.w3.org/2000/svg">
<rect width="24" height="24" rx="12" fill="black"/>
<path d="M6 8.25C6 7.85218 6.15804 7.47064 6.43934 7.18934C6.72064 6.90804 7.10218 6.75 7.5 6.75H16.5C16.8978 6.75 17.2794 6.90804 17.5607 7.18934C17.842 7.47064 18 7.85218 18 8.25V15.75C18 16.1478 17.842 16.5294 17.5607 16.8107C17.2794 17.092 16.8978 17.25 16.5 17.25H7.5C7.10218 17.25 6.72064 17.092 6.43934 16.8107C6.15804 16.5294 6 16.1478 6 15.75V8.25V8.25ZM6.75 15V15.75C6.75 15.9489 6.82902 16.1397 6.96967 16.2803C7.11032 16.421 7.30109 16.5 7.5 16.5H16.5C16.6989 16.5 16.8897 16.421 17.0303 16.2803C17.171 16.1397 17.25 15.9489 17.25 15.75V13.125L14.4173 11.6647C14.3469 11.6295 14.2673 11.6173 14.1896 11.6298C14.112 11.6423 14.0402 11.679 13.9845 11.7345L11.202 14.517L9.207 13.188C9.13497 13.14 9.04857 13.1185 8.96245 13.127C8.87634 13.1354 8.7958 13.1734 8.7345 13.2345L6.75 15ZM10.5 10.125C10.5 9.82663 10.3815 9.54048 10.1705 9.3295C9.95952 9.11853 9.67337 9 9.375 9C9.07663 9 8.79048 9.11853 8.5795 9.3295C8.36853 9.54048 8.25 9.82663 8.25 10.125C8.25 10.4234 8.36853 10.7095 8.5795 10.9205C8.79048 11.1315 9.07663 11.25 9.375 11.25C9.67337 11.25 9.95952 11.1315 10.1705 10.9205C10.3815 10.7095 10.5 10.4234 10.5 10.125Z" fill="#FFFFD3"/>
</svg>
