<svg width="206" height="206" viewBox="0 0 206 206" fill="none" xmlns="http://www.w3.org/2000/svg">
<rect width="206" height="206" fill="url(#paint0_radial_979_109432)" fill-opacity="0.7"/>
<path d="M103 119.911C100.51 119.911 98.0927 119.424 95.8192 118.462C93.6213 117.533 91.6504 116.199 89.957 114.506C88.2635 112.813 86.9304 110.842 86.0008 108.644C85.0388 106.37 84.5523 103.953 84.5523 101.463C84.5523 100.746 85.1324 100.166 85.8495 100.166C86.5665 100.166 87.1466 100.746 87.1466 101.463C87.1466 103.603 87.5645 105.678 88.3932 107.635C89.1931 109.523 90.3353 111.22 91.7909 112.676C93.2466 114.131 94.9436 115.277 96.8316 116.073C98.7845 116.898 100.86 117.316 103 117.316C105.14 117.316 107.216 116.898 109.172 116.07C111.06 115.27 112.757 114.128 114.213 112.672C115.669 111.216 116.814 109.519 117.611 107.631C118.436 105.679 118.854 103.603 118.854 101.463C118.854 99.3227 118.436 97.2473 117.607 95.2908C116.81 93.4073 115.656 91.6957 114.209 90.2501C112.765 88.8014 111.053 87.6474 109.169 86.8524C107.216 86.0273 105.14 85.6094 103 85.6094C102.283 85.6094 101.703 85.0293 101.703 84.3122C101.703 83.5952 102.283 83.0151 103 83.0151C105.49 83.0151 107.907 83.5016 110.181 84.4636C112.379 85.3932 114.35 86.7263 116.043 88.4198C117.737 90.1132 119.066 92.0877 119.996 94.282C120.958 96.5555 121.444 98.9732 121.444 101.463C121.444 103.953 120.958 106.37 119.996 108.644C119.07 110.842 117.737 112.813 116.043 114.506C114.35 116.199 112.375 117.529 110.181 118.459C107.907 119.424 105.49 119.911 103 119.911V119.911Z" fill="black"/>
<defs>
<radialGradient id="paint0_radial_979_109432" cx="0" cy="0" r="1" gradientUnits="userSpaceOnUse" gradientTransform="translate(103 103) rotate(90) scale(103)">
<stop stop-color="#C4FF61"/>
<stop offset="1" stop-color="white" stop-opacity="0"/>
</radialGradient>
</defs>
</svg>
